<svg width="35.601562" height="22.201660" viewBox="0 0 35.6016 22.2017" fill="none" xmlns="http://www.w3.org/2000/svg" xmlns:xlink="http://www.w3.org/1999/xlink">
	<desc>
			Created with Pixso.
	</desc>
	<defs/>
	<path id="Vector" d="M35.38 11.59L24.25 21.99C23.96 22.26 23.49 22.26 23.21 21.99C22.92 21.72 22.92 21.28 23.21 21.01L33.06 11.79L0.74 11.79C0.33 11.79 0 11.48 0 11.1C0 10.71 0.33 10.4 0.74 10.4L33.06 10.4L23.21 1.18C22.92 0.91 22.92 0.47 23.21 0.2C23.35 0.06 23.54 0 23.73 0C23.92 0 24.11 0.06 24.25 0.2L35.38 10.61C35.67 10.88 35.67 11.32 35.38 11.59Z" fill="#000000" fill-opacity="1.000000" fill-rule="nonzero"/>
</svg>
