<svg width="35.601562" height="22.200684" viewBox="0 0 35.6016 22.2007" fill="none" xmlns="http://www.w3.org/2000/svg" xmlns:xlink="http://www.w3.org/1999/xlink">
	<desc>
			Created with Pixso.
	</desc>
	<defs/>
	<path id="Vector" d="M35.38 10.6L24.25 0.2C23.96 -0.07 23.49 -0.07 23.21 0.2C22.92 0.47 22.92 0.91 23.21 1.18L33.06 10.4L0.74 10.4C0.33 10.4 0 10.71 0 11.1C0 11.48 0.33 11.79 0.74 11.79L33.06 11.79L23.21 21.01C22.92 21.28 22.92 21.72 23.21 21.99C23.35 22.13 23.54 22.2 23.73 22.2C23.92 22.2 24.11 22.13 24.25 21.99L35.38 11.59C35.67 11.31 35.67 10.88 35.38 10.6Z" fill="#FFFFFF" fill-opacity="1.000000" fill-rule="nonzero"/>
</svg>
