<svg width="35.601562" height="22.200684" viewBox="0 0 35.6016 22.2007" fill="none" xmlns="http://www.w3.org/2000/svg" xmlns:xlink="http://www.w3.org/1999/xlink">
	<desc>
			Created with Pixso.
	</desc>
	<defs/>
	<path id="Vector" d="M0.21 11.59L11.34 21.99C11.63 22.26 12.1 22.26 12.39 21.99C12.68 21.72 12.68 21.28 12.39 21.01L2.53 11.79L34.85 11.79C35.26 11.79 35.6 11.48 35.6 11.1C35.6 10.71 35.26 10.4 34.85 10.4L2.53 10.4L12.39 1.18C12.68 0.91 12.68 0.47 12.39 0.2C12.24 0.06 12.05 0 11.86 0C11.67 0 11.48 0.06 11.34 0.2L0.21 10.6C-0.08 10.88 -0.08 11.31 0.21 11.59Z" fill="#FFFFFF" fill-opacity="1.000000" fill-rule="nonzero"/>
</svg>
