<svg width="24.999817" height="23.611328" viewBox="0 0 24.9998 23.6113" fill="none" xmlns="http://www.w3.org/2000/svg" xmlns:xlink="http://www.w3.org/1999/xlink">
	<desc>
			Created with Pixso.
	</desc>
	<defs/>
	<path id="Vector" d="M21.63 0L3.36 0C1.5 0 0 1.42 0 3.18L0 20.42C0 22.18 1.5 23.61 3.36 23.61L12.37 23.61L12.39 15.17L10.07 15.17C9.76 15.17 9.52 14.94 9.52 14.65L9.51 11.93C9.51 11.65 9.75 11.41 10.05 11.41L12.37 11.41L12.37 8.79C12.37 5.74 14.34 4.08 17.22 4.08L19.59 4.08C19.89 4.08 20.13 4.31 20.13 4.59L20.13 6.89C20.13 7.17 19.89 7.4 19.59 7.4L18.14 7.4C16.57 7.4 16.27 8.11 16.27 9.14L16.27 11.41L19.71 11.41C20.04 11.41 20.29 11.68 20.25 11.99L19.91 14.71C19.88 14.97 19.65 15.17 19.37 15.17L16.28 15.17L16.27 23.61L21.63 23.61C23.49 23.61 24.99 22.18 24.99 20.42L24.99 3.18C24.99 1.42 23.49 0 21.63 0Z" fill="#FFFFFF" fill-opacity="1.000000" fill-rule="nonzero"/>
</svg>
