<svg width="26.999512" height="27.576447" viewBox="0 0 26.9995 27.5764" fill="none" xmlns="http://www.w3.org/2000/svg" xmlns:xlink="http://www.w3.org/1999/xlink">
	<desc>
			Created with Pixso.
	</desc>
	<defs/>
	<path id="Vector" d="M26.99 13.64C26.99 13.24 26.97 12.84 26.93 12.44C26.81 11.13 26.5 9.87 26.04 8.69C26 8.6 25.97 8.51 25.93 8.42C25.32 6.94 24.46 5.59 23.4 4.43C23.33 4.35 23.26 4.28 23.19 4.2C22.99 3.99 22.79 3.79 22.58 3.59C20.18 1.36 16.99 0 13.49 0C9.97 0 6.76 1.38 4.35 3.65C3.79 4.18 3.28 4.75 2.81 5.37C1.05 7.7 0 10.62 0 13.78C0 21.39 6.05 27.57 13.5 27.57C18.73 27.57 23.28 24.51 25.52 20.05C25.99 19.09 26.37 18.08 26.62 17.01C26.68 16.74 26.74 16.47 26.78 16.19C26.92 15.41 26.99 14.6 26.99 13.78C27 13.74 26.99 13.69 26.99 13.64ZM24.45 8.13L24.53 8.04C24.63 8.24 24.73 8.45 24.82 8.66L24.69 8.66L24.45 8.69L24.45 8.13ZM22.5 5.72L22.5 5.11C22.71 5.34 22.92 5.57 23.11 5.82L22.87 6.19L22.02 6.18L21.97 6L22.5 5.72ZM6.22 4.19L6.22 4.17L6.49 4.17L6.51 4.08L6.95 4.08L6.95 4.27L6.82 4.45L6.21 4.45L6.22 4.19ZM6.65 4.81C6.65 4.81 6.92 4.76 6.94 4.76C6.96 4.76 6.94 5.04 6.94 5.04L6.33 5.08L6.22 4.93L6.65 4.81ZM25.31 10.28L24.32 10.28L23.72 9.82L23.09 9.89L23.09 10.28L22.89 10.28L22.67 10.12L21.57 9.84L21.57 9.11L20.18 9.22L19.75 9.46L19.2 9.46L18.93 9.43L18.26 9.81L18.26 10.53L16.89 11.54L17 11.97L17.28 11.97L17.21 12.38L17.01 12.45L17 13.53L18.19 14.9L18.7 14.9L18.73 14.82L19.66 14.82L19.93 14.57L20.45 14.57L20.74 14.86L21.52 14.94L21.42 16.01L22.29 17.57L21.83 18.47L21.86 18.89L22.22 19.26L22.22 20.27L22.69 20.92L22.69 21.76L23.1 21.76C20.83 24.61 17.37 26.44 13.49 26.44C6.66 26.44 1.11 20.76 1.11 13.78C1.11 12.03 1.46 10.35 2.09 8.83L2.09 8.44L2.54 7.89C2.69 7.59 2.86 7.3 3.03 7.02L3.05 7.25L2.54 7.89C2.38 8.19 2.23 8.51 2.1 8.83L2.1 9.55L2.61 9.8L2.61 10.81L3.1 11.67L3.5 11.73L3.56 11.43L3.08 10.69L2.99 9.96L3.27 9.96L3.38 10.71L4.07 11.73L3.89 12.06L4.33 12.74L5.41 13.01L5.41 12.83L5.84 12.9L5.8 13.21L6.14 13.27L6.67 13.42L7.41 14.28L8.35 14.36L8.45 15.15L7.8 15.61L7.77 16.31L7.67 16.74L8.61 17.94L8.68 18.35C8.68 18.35 9.02 18.45 9.07 18.45C9.11 18.45 9.83 19 9.83 19L9.83 21.17L10.08 21.24L9.91 22.24L10.34 22.83L10.26 23.82L10.83 24.85L11.57 25.5L12.3 25.52L12.38 25.27L11.83 24.81L11.87 24.58L11.96 24.29L11.98 24L11.62 23.99L11.43 23.76L11.74 23.46L11.78 23.23L11.44 23.13L11.46 22.92L11.94 22.85L12.68 22.49L12.93 22.02L13.7 21.01L13.52 20.22L13.76 19.8L14.47 19.83L14.95 19.44L15.1 17.92L15.63 17.23L15.72 16.79L15.24 16.63L14.92 16.09L13.83 16.08L12.97 15.74L12.92 15.11L12.64 14.6L11.85 14.59L11.4 13.86L11 13.66L10.98 13.88L10.25 13.93L9.98 13.55L9.22 13.39L8.59 14.13L7.6 13.96L7.53 12.82L6.81 12.7L7.1 12.14L7.02 11.82L6.07 12.46L5.47 12.39L5.26 11.91L5.39 11.42L5.72 10.8L6.47 10.41L7.94 10.41L7.93 10.87L8.46 11.12L8.42 10.34L8.79 9.95L9.56 9.44L9.61 9.08L10.37 8.27L11.18 7.81L11.11 7.75L11.66 7.22L11.86 7.28L11.95 7.39L12.16 7.16L12.21 7.13L11.98 7.1L11.75 7.02L11.75 6.8L11.88 6.69L12.15 6.69L12.27 6.75L12.38 6.97L12.51 6.95L12.51 6.93L12.55 6.94L12.93 6.88L12.98 6.69L13.2 6.75L13.2 6.96L12.99 7.1L13 7.1L13.02 7.32L13.71 7.54C13.71 7.54 13.71 7.54 13.71 7.55L13.87 7.53L13.88 7.23L13.34 6.98L13.31 6.83L13.76 6.67L13.78 6.23L13.31 5.93L13.27 5.19L12.63 5.51L12.39 5.51L12.45 4.95L11.57 4.73L11.2 5.02L11.2 5.88L10.55 6.09L10.28 6.65L10 6.7L10 5.98L9.38 5.89L9.07 5.69L8.95 5.22L10.05 4.56L10.59 4.39L10.65 4.76L10.95 4.75L10.97 4.56L11.29 4.52L11.29 4.45L11.16 4.39L11.12 4.2L11.51 4.16L11.75 3.91L11.76 3.9L11.76 3.9L11.83 3.82L12.65 3.72L13.01 4.03L12.06 4.54L13.26 4.83L13.42 4.42L13.94 4.42L14.13 4.06L13.76 3.97L13.76 3.52L12.59 2.99L11.79 3.09L11.34 3.33L11.37 3.92L10.9 3.84L10.82 3.52L11.28 3.1L10.45 3.06L10.22 3.13L10.11 3.41L10.42 3.47L10.36 3.78L9.84 3.81L9.75 4.02L8.99 4.04C8.99 4.04 8.97 3.6 8.94 3.6C8.91 3.6 9.54 3.59 9.54 3.59L9.99 3.14L9.74 3.01L9.41 3.34L8.87 3.31L8.54 2.84L7.84 2.84L7.11 3.4L7.78 3.4L7.84 3.6L7.66 3.77L8.41 3.79L8.52 4.06L7.68 4.03L7.64 3.82L7.12 3.7L6.84 3.55L6.22 3.55C8.26 2.03 10.78 1.13 13.49 1.13C16.63 1.13 19.49 2.33 21.67 4.29L21.53 4.56L20.96 4.79L20.71 5.05L20.77 5.37L21.06 5.41L21.24 5.86L21.75 5.65L21.83 6.26L21.68 6.26L21.26 6.2L20.8 6.28L20.35 6.92L19.71 7.03L19.62 7.59L19.89 7.65L19.81 8.01L19.18 7.88L18.59 8.01L18.47 8.34L18.57 9.04L18.91 9.2L19.49 9.2L19.87 9.16L19.99 8.85L20.6 8.04L21 8.13L21.39 7.76L21.46 8.05L22.43 8.71L22.31 8.88L21.88 8.85L22.05 9.1L22.31 9.16L22.63 9.02L22.62 8.63L22.76 8.56L22.65 8.44L22 8.07L21.83 7.59L22.37 7.59L22.54 7.76L23 8.17L23.02 8.66L23.5 9.18L23.68 8.47L24.01 8.28L24.07 8.86L24.4 9.23L25.04 9.22C25.17 9.54 25.28 9.88 25.38 10.22L25.31 10.28ZM7.36 6.26L7.68 6.1L7.98 6.17L7.87 6.58L7.56 6.68L7.36 6.26ZM9.08 7.21L9.08 7.47L8.34 7.47L8.06 7.39L8.13 7.21L8.49 7.06L8.97 7.06L8.97 7.21L9.08 7.21ZM9.42 7.57L9.42 7.82L9.23 7.94L9 7.99C9 7.99 9 7.61 9 7.57L9.42 7.57ZM9.21 7.47L9.21 7.17L9.47 7.4L9.21 7.47ZM9.33 8.07L9.33 8.32L9.15 8.5L8.76 8.5L8.82 8.22L9 8.21L9.04 8.11L9.33 8.07ZM8.35 7.57L8.76 7.57L8.23 8.32L8.01 8.2L8.06 7.88L8.35 7.57ZM10.02 7.99L10.02 8.23L9.63 8.23L9.52 8.07L9.52 7.85L9.55 7.85L10.02 7.99ZM9.66 7.65L9.77 7.53L9.96 7.65L9.81 7.78L9.66 7.65ZM25.51 10.92L25.55 10.87C25.57 10.95 25.58 11.02 25.6 11.09L25.51 10.92Z" fill="#FFFFFF" fill-opacity="1.000000" fill-rule="nonzero"/>
</svg>
