<svg width="25.000000" height="23.611328" viewBox="0 0 25 23.6113" fill="none" xmlns="http://www.w3.org/2000/svg" xmlns:xlink="http://www.w3.org/1999/xlink">
	<desc>
			Created with Pixso.
	</desc>
	<defs>
		<clipPath id="clip281_37">
			<rect id="instagram 1" rx="0.000000" width="24.000000" height="22.611111" transform="translate(0.500000 0.500000)" fill="white" fill-opacity="0"/>
		</clipPath>
	</defs>
	<rect id="instagram 1" rx="0.000000" width="24.000000" height="22.611111" transform="translate(0.500000 0.500000)" fill="#FFFFFF" fill-opacity="0"/>
	<g clip-path="url(#clip281_37)">
		<path id="Vector" d="M21.33 0L3.66 0C1.64 0 0 1.55 0 3.45L0 20.15C0 22.05 1.64 23.61 3.66 23.61L21.33 23.61C23.35 23.61 25 22.05 25 20.15L25 3.45C25 1.55 23.35 0 21.33 0ZM12.54 17.98C8.91 17.98 5.95 15.19 5.95 11.75C5.95 8.32 8.91 5.53 12.54 5.53C16.18 5.53 19.14 8.32 19.14 11.75C19.14 15.19 16.18 17.98 12.54 17.98ZM19.87 6.91C18.66 6.91 17.67 5.98 17.67 4.84C17.67 3.69 18.66 2.76 19.87 2.76C21.08 2.76 22.07 3.69 22.07 4.84C22.07 5.98 21.08 6.91 19.87 6.91Z" fill="#FFFFFF" fill-opacity="1.000000" fill-rule="nonzero"/>
		<path id="Vector" d="M19.87 4.15C19.46 4.15 19.14 4.46 19.14 4.84C19.14 5.22 19.46 5.53 19.87 5.53C20.27 5.53 20.6 5.22 20.6 4.84C20.6 4.46 20.27 4.15 19.87 4.15Z" fill="#FFFFFF" fill-opacity="1.000000" fill-rule="nonzero"/>
		<path id="Vector" d="M12.54 6.91C9.72 6.91 7.42 9.08 7.42 11.75C7.42 14.42 9.72 16.6 12.54 16.6C15.37 16.6 17.67 14.42 17.67 11.75C17.67 9.08 15.37 6.91 12.54 6.91Z" fill="#FFFFFF" fill-opacity="1.000000" fill-rule="nonzero"/>
	</g>
</svg>
