<svg width="25.000000" height="23.611328" viewBox="0 0 25 23.6113" fill="none" xmlns="http://www.w3.org/2000/svg" xmlns:xlink="http://www.w3.org/1999/xlink">
	<desc>
			Created with Pixso.
	</desc>
	<defs/>
	<path id="Vector" d="M21.33 0L3.66 0C1.64 0 0 1.55 0 3.45L0 20.15C0 22.05 1.64 23.61 3.66 23.61L21.33 23.61C23.35 23.61 25 22.05 25 20.15L25 3.45C25 1.55 23.35 0 21.33 0ZM8.83 18.72L5.9 18.72L5.9 9.03L8.83 9.03L8.83 18.72ZM8.83 7.65L5.9 7.65L5.9 4.88L8.83 4.88L8.83 7.65ZM19.09 18.72L16.16 18.72L16.16 13.18C16.16 12.42 15.5 11.8 14.69 11.8C13.88 11.8 13.23 12.42 13.23 13.18L13.23 18.72L10.3 18.72L10.3 9.03L13.23 9.03L13.23 9.56C13.99 9.33 14.49 9.03 15.42 9.03C17.41 9.04 19.09 10.72 19.09 12.71L19.09 18.72Z" fill="#FFFFFF" fill-opacity="1.000000" fill-rule="nonzero"/>
</svg>
